<svg version="1.1" id="Layer_1" xmlns="http://www.w3.org/2000/svg" xmlns:xlink="http://www.w3.org/1999/xlink" x="0px" y="0px"
	 width="100%" viewBox="0 0 500 500" enable-background="new 0 0 500 500" xml:space="preserve">
<path fill="#FFFFFF" opacity="1.000000" stroke="none" 
	d="
M468.000000,501.000000 
	C312.000031,501.000000 156.500076,501.000000 1.000083,501.000000 
	C1.000056,334.333405 1.000056,167.666824 1.000028,1.000173 
	C167.666550,1.000115 334.333099,1.000115 500.999756,1.000058 
	C500.999817,167.666519 500.999817,334.333038 500.999908,500.999756 
	C490.166656,501.000000 479.333344,501.000000 468.000000,501.000000 
M326.675201,266.769928 
	C327.134857,266.508148 327.594482,266.246368 328.668427,266.334015 
	C334.862122,270.181274 339.924438,269.358215 342.186920,263.577850 
	C338.602264,267.033905 338.374054,264.247406 338.268677,261.981842 
	C338.091980,258.181915 338.274536,254.366669 338.166077,250.561874 
	C337.916779,241.817780 335.088013,239.380859 325.415222,239.575089 
	C322.262329,240.347931 318.481293,240.331024 316.173523,242.166473 
	C314.588928,243.426743 315.050964,247.260239 314.598175,249.943542 
	C316.872711,250.297501 319.506500,251.542267 321.339996,250.802765 
	C324.307709,249.605820 324.661224,247.261337 322.646362,243.991287 
	C320.419128,240.376556 323.568512,240.559357 326.336975,241.720551 
	C326.565735,245.836243 326.794464,249.951950 326.133881,254.096588 
	C323.819855,254.303238 321.474518,254.337479 319.198090,254.751099 
	C313.835693,255.725418 311.573914,258.335602 312.144226,262.575500 
	C312.678436,266.546967 316.099548,269.016876 321.053009,268.626160 
	C322.797333,268.488556 324.478821,267.553955 326.675201,266.769928 
M358.689270,246.854721 
	C361.203735,241.788116 361.460693,241.634293 363.837708,242.687683 
	C363.453491,245.196442 362.124298,248.310333 363.035889,249.249741 
	C364.348328,250.602203 368.484375,251.464233 369.283630,250.588974 
	C370.865540,248.856659 371.875122,245.653687 371.511078,243.308624 
	C370.926086,239.539688 365.521057,238.360962 361.618164,240.672134 
	C360.343811,241.426743 359.114136,242.256683 357.962158,242.363342 
	C357.903229,241.906326 357.844299,241.449295 357.850250,240.502213 
	C357.661285,240.124161 357.382263,240.038116 356.124023,240.086426 
	C353.421265,240.132828 350.718475,240.179214 347.291962,240.059921 
	C346.336700,240.113678 345.381470,240.167419 343.755249,240.258926 
	C345.361023,241.060898 346.252380,241.506073 347.042969,242.889801 
	C347.038086,249.677872 347.135101,256.468689 346.952728,263.251984 
	C346.910034,264.840485 345.921295,266.403564 345.427246,267.809265 
	C350.374603,267.809265 355.937256,267.809265 360.124969,267.809265 
	C359.458679,266.236725 358.166168,264.518494 358.086548,262.745850 
	C357.856842,257.629211 358.115967,252.490677 358.689270,246.854721 
M196.276199,241.883469 
	C195.860641,242.596634 195.445084,243.309799 194.292770,243.655106 
	C194.111115,242.538330 193.929443,241.421539 193.706024,240.048126 
	C191.456207,240.048126 189.312515,240.048141 187.168839,240.048141 
	C185.011536,240.048141 182.854218,240.048126 179.993317,240.048126 
	C184.304459,242.982391 184.175552,265.389038 180.364548,267.878418 
	C185.681686,267.878418 190.795410,267.878418 196.011108,267.878418 
	C193.421753,265.305847 193.366730,263.934387 195.467041,244.427185 
	C195.967987,243.908737 196.468933,243.390289 197.836700,242.729309 
	C198.861771,243.659042 200.731812,244.551102 200.775223,245.524582 
	C201.063416,251.988541 201.027939,258.471161 200.911774,264.944336 
	C200.894363,265.914124 199.902634,266.866425 199.259705,268.007751 
	C203.347595,268.007751 207.483719,268.017975 211.619720,268.000305 
	C212.596741,267.996124 213.573380,267.898224 213.799683,267.885559 
	C213.212601,266.607697 212.100342,265.254669 212.035553,263.853210 
	C211.805771,258.881714 212.090942,253.887390 211.890854,248.913391 
	C211.542236,240.247437 204.392944,236.824417 196.276199,241.883469 
M390.836731,242.729309 
	C391.861786,243.659058 393.731842,244.551132 393.775238,245.524628 
	C394.063416,251.988571 394.027893,258.471191 393.911713,264.944366 
	C393.894348,265.914185 392.902679,266.866516 392.345123,267.856354 
	C397.324188,267.856354 402.433533,267.856354 406.786072,267.856354 
	C406.212433,266.607635 405.100342,265.254547 405.035553,263.853119 
	C404.805786,258.881622 405.090942,253.887299 404.890869,248.913300 
	C404.542297,240.247391 397.392853,236.824402 389.276184,241.883514 
	C388.860657,242.596664 388.445129,243.309814 387.292786,243.655167 
	C387.111115,242.538376 386.929443,241.421585 386.705994,240.048126 
	C384.453827,240.048126 382.311401,240.048141 380.168976,240.048141 
	C378.011566,240.048141 375.854187,240.048126 372.993439,240.048126 
	C377.304382,242.982208 377.175598,265.388885 373.364563,267.878418 
	C378.681488,267.878418 383.795227,267.878418 387.868500,267.878418 
	C386.168335,259.915955 387.082886,251.907822 388.467133,244.427109 
	C388.968048,243.908676 389.468964,243.390244 390.836731,242.729309 
M218.658051,271.953369 
	C215.323578,272.844940 213.971832,274.998657 215.123581,278.253143 
	C216.196381,281.284515 223.147141,283.386841 226.735367,281.976379 
	C223.381927,279.583313 223.381927,279.583313 222.671661,271.260803 
	C226.806442,271.412445 230.962280,271.372711 235.064102,271.823944 
	C236.421417,271.973236 238.639328,273.316559 238.704758,274.238739 
	C238.825684,275.943024 238.013199,278.036469 236.898987,279.406036 
	C235.962372,280.557251 234.044647,280.910278 232.315979,281.733459 
	C239.780090,282.464172 245.145950,278.516602 245.668396,272.191254 
	C246.154175,266.309845 242.079483,262.436279 234.823227,262.024048 
	C232.014893,261.864502 229.174057,262.126343 226.385925,261.834259 
	C225.219788,261.712097 224.152283,260.648346 223.819641,259.700897 
	C226.404770,259.472717 228.988800,259.231171 231.575272,259.019409 
	C235.785019,258.674713 239.370148,257.279510 241.150162,253.085342 
	C242.839951,249.103729 241.769485,245.762329 238.897415,242.620682 
	C237.679611,241.288559 237.179703,239.300125 236.296555,237.493454 
	C236.048950,238.375336 235.776428,239.346008 235.554184,240.137558 
	C233.182220,239.922928 231.031113,239.498108 228.900070,239.582077 
	C224.062012,239.772720 219.499847,240.836090 217.705185,246.134811 
	C216.064133,250.979965 217.368088,254.908615 221.925446,257.631134 
	C222.159882,257.771179 221.607346,259.228577 220.735794,260.314789 
	C216.997711,263.125061 215.574890,266.211029 219.414276,270.093262 
	C219.742233,270.424866 219.440353,271.379395 218.658051,271.953369 
M257.545929,268.020660 
	C264.312592,268.020660 271.079254,268.020660 278.028595,268.020660 
	C278.419922,263.240509 278.770691,258.955627 279.121490,254.670746 
	C274.272614,260.329559 271.582794,267.710297 262.267212,266.390076 
	C262.267212,253.757401 262.267212,241.227722 262.267212,228.545395 
	C264.243011,228.370865 265.920593,228.222672 267.598175,228.074478 
	C267.570709,227.811798 267.543243,227.549118 267.515778,227.286438 
	C260.833649,227.286438 254.151535,227.286438 248.283920,227.286438 
	C248.994049,229.068970 250.177567,230.690964 250.206482,232.333282 
	C250.381958,242.304001 250.405884,252.281677 250.197144,262.251099 
	C250.156967,264.170135 248.859528,266.062836 248.122131,268.020660 
	C250.599686,268.020660 253.584152,268.020660 257.545929,268.020660 
M302.393036,252.962814 
	C304.653961,252.962814 306.914917,252.962814 309.152313,252.962814 
	C309.305206,245.685196 307.330719,242.124710 302.539764,240.397095 
	C296.310059,238.150635 287.936798,240.208054 284.291199,244.880997 
	C280.906677,249.219223 280.739136,257.877502 283.944458,262.797394 
	C287.393829,268.091888 294.301178,269.840729 302.645721,267.532257 
	C293.633453,265.158600 292.000336,262.598022 293.610687,252.962814 
	C296.181000,252.962814 298.814148,252.962814 302.393036,252.962814 
M89.924232,236.421158 
	C86.152184,240.174133 82.408569,243.956314 78.596703,247.668411 
	C76.530151,249.680878 76.393135,251.670059 78.433708,253.700760 
	C84.208794,259.447845 89.921875,265.264526 95.906273,270.786163 
	C96.806816,271.617065 99.030258,271.014191 100.641747,271.074585 
	C100.601456,269.354584 100.953056,267.493286 100.399521,265.958374 
	C99.939056,264.681549 98.435410,263.767151 97.358513,262.728821 
	C93.343262,258.857422 89.313423,255.001129 85.300774,251.150375 
	C90.740913,245.678314 95.414528,240.952011 100.119400,236.257019 
	C102.019661,234.360748 103.058189,232.041458 100.438072,230.464966 
	C99.245468,229.747375 96.622185,230.572144 95.094688,231.463272 
	C93.287170,232.517746 91.962067,234.399170 89.924232,236.421158 
M150.199432,245.323013 
	C152.114502,246.872589 154.029572,248.422165 156.842407,250.698166 
	C150.976257,256.201477 146.016571,260.837677 141.078201,265.496490 
	C139.339294,267.136932 138.072845,269.318054 140.563141,270.834137 
	C141.809097,271.592682 144.775436,271.214600 145.906784,270.187012 
	C151.559708,265.052368 156.832306,259.501343 162.301788,254.161438 
	C164.711563,251.808777 164.656387,249.689957 162.272018,247.359436 
	C156.805038,242.016022 151.531677,236.465485 145.885559,231.321915 
	C144.751266,230.288574 141.738129,229.830444 140.591965,230.599152 
	C138.005569,232.333847 139.347595,234.586334 141.194626,236.401337 
	C144.039566,239.196915 146.858414,242.019058 150.199432,245.323013 
M121.934593,258.605804 
	C123.948822,248.832581 126.111725,239.085144 127.817482,229.258377 
	C128.074234,227.779282 126.195755,225.929550 125.305000,224.251266 
	C123.926102,225.431686 121.625633,226.407074 121.310349,227.824142 
	C118.023964,242.594788 114.963165,257.418701 112.147446,272.286133 
	C111.871559,273.742859 113.646347,275.587921 114.469292,277.252747 
	C115.922974,276.037109 118.206100,275.077423 118.675041,273.557892 
	C120.091072,268.969513 120.802452,264.163696 121.934593,258.605804 
M240.336182,234.812622 
	C240.707748,236.504379 241.079315,238.196152 241.450867,239.887894 
	C242.985214,239.258255 245.580444,238.888824 245.813202,237.939926 
	C246.192383,236.393936 245.577301,233.685608 244.404099,232.864273 
	C241.781631,231.028320 238.974564,231.504593 236.958710,234.872635 
	C238.138107,234.722992 238.950333,234.619919 240.336182,234.812622 
z"/>
<path fill="#0BC26A" opacity="1.000000" stroke="none" 
	d="
M257.057251,268.020660 
	C253.584152,268.020660 250.599686,268.020660 248.122131,268.020660 
	C248.859528,266.062836 250.156967,264.170135 250.197144,262.251099 
	C250.405884,252.281677 250.381958,242.304001 250.206482,232.333282 
	C250.177567,230.690964 248.994049,229.068970 248.283920,227.286438 
	C254.151535,227.286438 260.833649,227.286438 267.515778,227.286438 
	C267.543243,227.549118 267.570709,227.811798 267.598175,228.074478 
	C265.920593,228.222672 264.243011,228.370865 262.267212,228.545395 
	C262.267212,241.227722 262.267212,253.757401 262.267212,266.390076 
	C271.582794,267.710297 274.272614,260.329559 279.121490,254.670746 
	C278.770691,258.955627 278.419922,263.240509 278.028595,268.020660 
	C271.079254,268.020660 264.312592,268.020660 257.057251,268.020660 
z"/>
<path fill="#08C168" opacity="1.000000" stroke="none" 
	d="
M301.920166,252.962814 
	C298.814148,252.962814 296.181000,252.962814 293.610687,252.962814 
	C292.000336,262.598022 293.633453,265.158600 302.645721,267.532257 
	C294.301178,269.840729 287.393829,268.091888 283.944458,262.797394 
	C280.739136,257.877502 280.906677,249.219223 284.291199,244.880997 
	C287.936798,240.208054 296.310059,238.150635 302.539764,240.397095 
	C307.330719,242.124710 309.305206,245.685196 309.152313,252.962814 
	C306.914917,252.962814 304.653961,252.962814 301.920166,252.962814 
M298.202484,251.698807 
	C298.345947,248.834137 298.656921,245.961594 298.523010,243.109940 
	C298.486450,242.331161 297.148804,241.074936 296.343323,241.021774 
	C295.531769,240.968246 294.055145,242.013321 293.887634,242.795090 
	C293.287323,245.596893 293.118195,248.491089 292.729279,251.839081 
	C294.777954,251.839081 296.051300,251.839081 298.202484,251.698807 
z"/>
<path fill="#5C5C5C" opacity="1.000000" stroke="none" 
	d="
M90.176041,236.171646 
	C91.962067,234.399170 93.287170,232.517746 95.094688,231.463272 
	C96.622185,230.572144 99.245468,229.747375 100.438072,230.464966 
	C103.058189,232.041458 102.019661,234.360748 100.119400,236.257019 
	C95.414528,240.952011 90.740913,245.678314 85.300774,251.150375 
	C89.313423,255.001129 93.343262,258.857422 97.358513,262.728821 
	C98.435410,263.767151 99.939056,264.681549 100.399521,265.958374 
	C100.953056,267.493286 100.601456,269.354584 100.641747,271.074585 
	C99.030258,271.014191 96.806816,271.617065 95.906273,270.786163 
	C89.921875,265.264526 84.208794,259.447845 78.433708,253.700760 
	C76.393135,251.670059 76.530151,249.680878 78.596703,247.668411 
	C82.408569,243.956314 86.152184,240.174133 90.176041,236.171646 
z"/>
<path fill="#5C5C5C" opacity="1.000000" stroke="none" 
	d="
M149.943878,245.076477 
	C146.858414,242.019058 144.039566,239.196915 141.194626,236.401337 
	C139.347595,234.586334 138.005569,232.333847 140.591965,230.599152 
	C141.738129,229.830444 144.751266,230.288574 145.885559,231.321915 
	C151.531677,236.465485 156.805038,242.016022 162.272018,247.359436 
	C164.656387,249.689957 164.711563,251.808777 162.301788,254.161438 
	C156.832306,259.501343 151.559708,265.052368 145.906784,270.187012 
	C144.775436,271.214600 141.809097,271.592682 140.563141,270.834137 
	C138.072845,269.318054 139.339294,267.136932 141.078201,265.496490 
	C146.016571,260.837677 150.976257,256.201477 156.842407,250.698166 
	C154.029572,248.422165 152.114502,246.872589 149.943878,245.076477 
z"/>
<path fill="#5C5C5C" opacity="1.000000" stroke="none" 
	d="
M121.861557,259.024231 
	C120.802452,264.163696 120.091072,268.969513 118.675041,273.557892 
	C118.206100,275.077423 115.922974,276.037109 114.469292,277.252747 
	C113.646347,275.587921 111.871559,273.742859 112.147446,272.286133 
	C114.963165,257.418701 118.023964,242.594788 121.310349,227.824142 
	C121.625633,226.407074 123.926102,225.431686 125.305000,224.251266 
	C126.195755,225.929550 128.074234,227.779282 127.817482,229.258377 
	C126.111725,239.085144 123.948822,248.832581 121.861557,259.024231 
z"/>
<path fill="#0BC26A" opacity="1.000000" stroke="none" 
	d="
M221.421204,260.072632 
	C221.607346,259.228577 222.159882,257.771179 221.925446,257.631134 
	C217.368088,254.908615 216.064133,250.979965 217.705185,246.134811 
	C219.499847,240.836090 224.062012,239.772720 228.900070,239.582077 
	C231.031113,239.498108 233.182220,239.922928 235.554184,240.137558 
	C235.776428,239.346008 236.048950,238.375336 236.296555,237.493454 
	C237.179703,239.300125 237.679611,241.288559 238.897415,242.620682 
	C241.769485,245.762329 242.839951,249.103729 241.150162,253.085342 
	C239.370148,257.279510 235.785019,258.674713 231.575272,259.019409 
	C228.988800,259.231171 226.404770,259.472717 223.159729,259.858826 
	C222.140274,260.035370 221.780746,260.053986 221.421204,260.072632 
M226.948471,247.639435 
	C227.016068,250.105637 226.857346,252.609283 227.256470,255.020615 
	C227.429504,256.065979 228.751831,256.921112 229.552109,257.862671 
	C230.353271,256.957794 231.783142,256.094238 231.845764,255.140854 
	C232.103928,251.210999 232.064636,247.247437 231.849380,243.311874 
	C231.803238,242.468155 230.567688,241.689484 229.880066,240.880844 
	C228.999268,241.683990 227.827652,242.339020 227.321396,243.332947 
	C226.838211,244.281586 227.048141,245.583237 226.948471,247.639435 
z"/>
<path fill="#08C168" opacity="1.000000" stroke="none" 
	d="
M221.078506,260.193695 
	C221.780746,260.053986 222.140274,260.035370 222.769867,260.014709 
	C224.152283,260.648346 225.219788,261.712097 226.385925,261.834259 
	C229.174057,262.126343 232.014893,261.864502 234.823227,262.024048 
	C242.079483,262.436279 246.154175,266.309845 245.668396,272.191254 
	C245.145950,278.516602 239.780090,282.464172 232.315979,281.733459 
	C234.044647,280.910278 235.962372,280.557251 236.898987,279.406036 
	C238.013199,278.036469 238.825684,275.943024 238.704758,274.238739 
	C238.639328,273.316559 236.421417,271.973236 235.064102,271.823944 
	C230.962280,271.372711 226.806442,271.412445 222.334259,271.639954 
	C221.996857,272.019104 222.046997,272.003784 221.999222,271.574677 
	C221.131561,271.445282 220.311676,271.744995 219.475128,272.024536 
	C219.458481,272.004364 219.431061,272.044525 219.431061,272.044525 
	C219.440353,271.379395 219.742233,270.424866 219.414276,270.093262 
	C215.574890,266.211029 216.997711,263.125061 221.078506,260.193695 
z"/>
<path fill="#04C066" opacity="1.000000" stroke="none" 
	d="
M327.023224,254.067642 
	C326.794464,249.951950 326.565735,245.836243 326.181641,241.079926 
	C326.026306,240.439316 326.011078,239.944000 326.011078,239.944000 
	C335.088013,239.380859 337.916779,241.817780 338.166077,250.561874 
	C338.274536,254.366669 338.091980,258.181915 338.268677,261.981842 
	C338.374054,264.247406 338.602264,267.033905 342.186920,263.577850 
	C339.924438,269.358215 334.862122,270.181274 328.205292,265.772095 
	C327.493195,261.811310 327.244232,258.412445 327.007202,254.777252 
	C327.019165,254.540909 327.023224,254.067642 327.023224,254.067642 
z"/>
<path fill="#06C167" opacity="1.000000" stroke="none" 
	d="
M194.951706,243.901520 
	C193.366730,263.934387 193.421753,265.305847 196.011108,267.878418 
	C190.795410,267.878418 185.681686,267.878418 180.364548,267.878418 
	C184.175552,265.389038 184.304459,242.982391 179.993317,240.048126 
	C182.854218,240.048126 185.011536,240.048141 187.168839,240.048141 
	C189.312515,240.048141 191.456207,240.048126 193.706024,240.048126 
	C193.929443,241.421539 194.111115,242.538330 194.638367,243.810974 
	C194.983963,243.966843 194.951706,243.901520 194.951706,243.901520 
z"/>
<path fill="#06C167" opacity="1.000000" stroke="none" 
	d="
M387.951813,243.901520 
	C387.082886,251.907822 386.168335,259.915955 387.868500,267.878418 
	C383.795227,267.878418 378.681488,267.878418 373.364563,267.878418 
	C377.175598,265.388885 377.304382,242.982208 372.993439,240.048126 
	C375.854187,240.048126 378.011566,240.048141 380.168976,240.048141 
	C382.311401,240.048141 384.453827,240.048126 386.705994,240.048126 
	C386.929443,241.421585 387.111115,242.538376 387.638428,243.811005 
	C387.984039,243.966843 387.951813,243.901520 387.951813,243.901520 
z"/>
<path fill="#04C066" opacity="1.000000" stroke="none" 
	d="
M389.855286,241.596329 
	C397.392853,236.824402 404.542297,240.247391 404.890869,248.913300 
	C405.090942,253.887299 404.805786,258.881622 405.035553,263.853119 
	C405.100342,265.254547 406.212433,266.607635 406.786072,267.856354 
	C402.433533,267.856354 397.324188,267.856354 392.345123,267.856354 
	C392.902679,266.866516 393.894348,265.914185 393.911713,264.944366 
	C394.027893,258.471191 394.063416,251.988571 393.775238,245.524628 
	C393.731842,244.551132 391.861786,243.659058 390.384277,242.480835 
	C389.906311,242.020340 389.880798,241.808334 389.855286,241.596329 
z"/>
<path fill="#04C066" opacity="1.000000" stroke="none" 
	d="
M196.855316,241.596283 
	C204.392944,236.824417 211.542236,240.247437 211.890854,248.913391 
	C212.090942,253.887390 211.805771,258.881714 212.035553,263.853210 
	C212.100342,265.254669 213.212601,266.607697 213.799683,267.885559 
	C213.573380,267.898224 212.596741,267.996124 211.619720,268.000305 
	C207.483719,268.017975 203.347595,268.007751 199.259705,268.007751 
	C199.902634,266.866425 200.894363,265.914124 200.911774,264.944336 
	C201.027939,258.471161 201.063416,251.988541 200.775223,245.524582 
	C200.731812,244.551102 198.861771,243.659042 197.384247,242.480835 
	C196.906296,242.020309 196.880814,241.808289 196.855316,241.596283 
z"/>
<path fill="#01BF63" opacity="1.000000" stroke="none" 
	d="
M357.785400,240.992279 
	C357.844299,241.449295 357.903229,241.906326 357.669128,242.937592 
	C357.645142,244.794800 357.914154,246.077774 358.183136,247.360748 
	C358.115967,252.490677 357.856842,257.629211 358.086548,262.745850 
	C358.166168,264.518494 359.458679,266.236725 360.124969,267.809265 
	C355.937256,267.809265 350.374603,267.809265 345.427246,267.809265 
	C345.921295,266.403564 346.910034,264.840485 346.952728,263.251984 
	C347.135101,256.468689 347.038086,249.677872 347.304565,242.275543 
	C347.716034,241.182739 347.865875,240.704178 348.015717,240.225616 
	C350.718475,240.179214 353.421265,240.132828 356.654297,240.329651 
	C357.341583,240.774628 357.541870,240.914429 357.785400,240.992279 
z"/>
<path fill="#0FC36C" opacity="1.000000" stroke="none" 
	d="
M326.578552,254.082123 
	C327.023224,254.067642 327.019165,254.540909 326.647614,254.830994 
	C322.000916,258.785217 321.963257,263.917358 326.188995,266.983276 
	C324.478821,267.553955 322.797333,268.488556 321.053009,268.626160 
	C316.099548,269.016876 312.678436,266.546967 312.144226,262.575500 
	C311.573914,258.335602 313.835693,255.725418 319.198090,254.751099 
	C321.474518,254.337479 323.819855,254.303238 326.578552,254.082123 
z"/>
<path fill="#0FC36C" opacity="1.000000" stroke="none" 
	d="
M358.436218,247.107727 
	C357.914154,246.077774 357.645142,244.794800 357.620056,243.281998 
	C359.114136,242.256683 360.343811,241.426743 361.618164,240.672134 
	C365.521057,238.360962 370.926086,239.539688 371.511078,243.308624 
	C371.875122,245.653687 370.865540,248.856659 369.283630,250.588974 
	C368.484375,251.464233 364.348328,250.602203 363.035889,249.249741 
	C362.124298,248.310333 363.453491,245.196442 363.837708,242.687683 
	C361.460693,241.634293 361.203735,241.788116 358.436218,247.107727 
z"/>
<path fill="#0FC36C" opacity="1.000000" stroke="none" 
	d="
M325.713135,239.759552 
	C326.011078,239.944000 326.026306,240.439316 326.024597,240.687073 
	C323.568512,240.559357 320.419128,240.376556 322.646362,243.991287 
	C324.661224,247.261337 324.307709,249.605820 321.339996,250.802765 
	C319.506500,251.542267 316.872711,250.297501 314.598175,249.943542 
	C315.050964,247.260239 314.588928,243.426743 316.173523,242.166473 
	C318.481293,240.331024 322.262329,240.347931 325.713135,239.759552 
z"/>
<path fill="#0FC36C" opacity="1.000000" stroke="none" 
	d="
M219.044556,271.998962 
	C219.431061,272.044525 219.458481,272.004364 219.918808,272.070740 
	C220.935089,272.092682 221.491043,272.048248 222.046997,272.003784 
	C222.046997,272.003784 221.996857,272.019104 221.987488,271.995117 
	C223.381927,279.583313 223.381927,279.583313 226.735367,281.976379 
	C223.147141,283.386841 216.196381,281.284515 215.123581,278.253143 
	C213.971832,274.998657 215.323578,272.844940 219.044556,271.998962 
z"/>
<path fill="#0FC36C" opacity="1.000000" stroke="none" 
	d="
M240.049377,234.664734 
	C238.950333,234.619919 238.138107,234.722992 236.958710,234.872635 
	C238.974564,231.504593 241.781631,231.028320 244.404099,232.864273 
	C245.577301,233.685608 246.192383,236.393936 245.813202,237.939926 
	C245.580444,238.888824 242.985214,239.258255 241.450867,239.887909 
	C241.079315,238.196152 240.707748,236.504379 240.049377,234.664734 
z"/>
<path fill="#EEFBF5" opacity="1.000000" stroke="none" 
	d="
M326.432098,266.876587 
	C321.963257,263.917358 322.000916,258.785217 326.635681,255.067337 
	C327.244232,258.412445 327.493195,261.811310 327.898132,265.597351 
	C327.594482,266.246368 327.134857,266.508148 326.432098,266.876587 
z"/>
<path fill="#0FC36C" opacity="1.000000" stroke="none" 
	d="
M347.653839,240.142761 
	C347.865875,240.704178 347.716034,241.182739 347.354919,241.806259 
	C346.252380,241.506073 345.361023,241.060898 343.755249,240.258926 
	C345.381470,240.167419 346.336700,240.113678 347.653839,240.142761 
z"/>
<path fill="#06C167" opacity="1.000000" stroke="none" 
	d="
M389.565735,241.739929 
	C389.880798,241.808334 389.906311,242.020340 389.950867,242.552078 
	C389.468964,243.390244 388.968048,243.908676 388.209473,244.164307 
	C387.951813,243.901520 387.984039,243.966843 388.006805,243.994904 
	C388.445129,243.309814 388.860657,242.596664 389.565735,241.739929 
z"/>
<path fill="#06C167" opacity="1.000000" stroke="none" 
	d="
M196.565765,241.739868 
	C196.880814,241.808289 196.906296,242.020309 196.950836,242.552094 
	C196.468933,243.390289 195.967987,243.908737 195.209381,244.164352 
	C194.951706,243.901520 194.983963,243.966843 195.006744,243.994904 
	C195.445084,243.309799 195.860641,242.596634 196.565765,241.739868 
z"/>
<path fill="#0FC36C" opacity="1.000000" stroke="none" 
	d="
M357.817810,240.747253 
	C357.541870,240.914429 357.341583,240.774628 357.098877,240.408478 
	C357.382263,240.038116 357.661285,240.124161 357.817810,240.747253 
z"/>
<path fill="#EEFBF5" opacity="1.000000" stroke="none" 
	d="
M297.763550,251.768951 
	C296.051300,251.839081 294.777954,251.839081 292.729279,251.839081 
	C293.118195,248.491089 293.287323,245.596893 293.887634,242.795090 
	C294.055145,242.013321 295.531769,240.968246 296.343323,241.021774 
	C297.148804,241.074936 298.486450,242.331161 298.523010,243.109940 
	C298.656921,245.961594 298.345947,248.834137 297.763550,251.768951 
z"/>
<path fill="#EEFBF5" opacity="1.000000" stroke="none" 
	d="
M226.950928,247.184570 
	C227.048141,245.583237 226.838211,244.281586 227.321396,243.332947 
	C227.827652,242.339020 228.999268,241.683990 229.880066,240.880844 
	C230.567688,241.689484 231.803238,242.468155 231.849380,243.311874 
	C232.064636,247.247437 232.103928,251.210999 231.845764,255.140854 
	C231.783142,256.094238 230.353271,256.957794 229.552109,257.862671 
	C228.751831,256.921112 227.429504,256.065979 227.256470,255.020615 
	C226.857346,252.609283 227.016068,250.105637 226.950928,247.184570 
z"/>
<path fill="#FFFFFF" opacity="1.000000" stroke="none" 
	d="
M221.999222,271.574677 
	C221.491043,272.048248 220.935089,272.092682 219.935455,272.090942 
	C220.311676,271.744995 221.131561,271.445282 221.999222,271.574677 
z"/>
</svg>